<?xml version="1.0" encoding="UTF-8"?>
<svg id="Camada_2" xmlns="http://www.w3.org/2000/svg" viewBox="0 0 829.5 201.64">
  <defs>
    <style>
      .cls-1 {
        fill: #01111e;
      }

      .cls-2 {
        fill: #377ffe;
      }
    </style>
  </defs>
  <g id="Camada_1-2" data-name="Camada_1">
    <g>
      <g>
        <path class="cls-1" d="M311.05,50.41v19.68h-26.71v81.14h-24.56v-81.14h-26.71v-19.68h77.98Z"/>
        <path class="cls-1" d="M398.51,117.05h-55.58c.38,4.98,1.99,8.79,4.81,11.42,2.82,2.63,6.29,3.95,10.41,3.95,6.13,0,10.39-2.59,12.78-7.76h26.14c-1.34,5.27-3.76,10.01-7.25,14.22-3.5,4.21-7.88,7.52-13.14,9.91-5.27,2.39-11.16,3.59-17.67,3.59-7.85,0-14.84-1.67-20.97-5.03-6.13-3.35-10.92-8.14-14.36-14.36-3.45-6.22-5.17-13.5-5.17-21.83s1.7-15.61,5.1-21.83c3.4-6.22,8.16-11.01,14.29-14.36,6.13-3.35,13.16-5.03,21.11-5.03s14.65,1.63,20.68,4.88c6.03,3.26,10.75,7.9,14.15,13.93,3.4,6.03,5.1,13.07,5.1,21.11,0,2.3-.14,4.69-.43,7.18ZM373.8,103.41c0-4.21-1.44-7.56-4.31-10.05-2.87-2.49-6.46-3.73-10.77-3.73s-7.59,1.2-10.41,3.59c-2.83,2.39-4.57,5.79-5.24,10.2h30.73Z"/>
        <path class="cls-1" d="M425.79,148.79c-5.46-2.39-9.77-5.67-12.93-9.84-3.16-4.17-4.93-8.83-5.31-14h24.27c.29,2.78,1.58,5.03,3.88,6.75s5.12,2.58,8.47,2.58c3.06,0,5.43-.6,7.11-1.79,1.67-1.2,2.51-2.75,2.51-4.67,0-2.3-1.2-4-3.59-5.1-2.39-1.1-6.27-2.32-11.63-3.66-5.75-1.34-10.53-2.75-14.36-4.24-3.83-1.48-7.13-3.83-9.91-7.04-2.78-3.21-4.17-7.54-4.17-13,0-4.6,1.27-8.78,3.81-12.57,2.54-3.78,6.27-6.77,11.2-8.98,4.93-2.2,10.79-3.3,17.59-3.3,10.05,0,17.97,2.49,23.77,7.47,5.79,4.98,9.12,11.59,9.98,19.82h-22.69c-.38-2.78-1.6-4.98-3.66-6.61-2.06-1.63-4.76-2.44-8.11-2.44-2.87,0-5.08.55-6.61,1.65-1.53,1.1-2.3,2.61-2.3,4.52,0,2.3,1.22,4.02,3.66,5.17,2.44,1.15,6.25,2.3,11.42,3.45,5.94,1.53,10.77,3.04,14.51,4.52,3.73,1.49,7.01,3.88,9.84,7.18,2.82,3.3,4.28,7.73,4.38,13.28,0,4.69-1.32,8.88-3.95,12.57-2.63,3.69-6.42,6.58-11.35,8.69-4.93,2.11-10.65,3.16-17.16,3.16-6.99,0-13.21-1.2-18.67-3.59Z"/>
        <path class="cls-1" d="M505.93,148.79c-5.46-2.39-9.77-5.67-12.93-9.84-3.16-4.17-4.93-8.83-5.31-14h24.27c.29,2.78,1.58,5.03,3.88,6.75s5.12,2.58,8.47,2.58c3.06,0,5.43-.6,7.11-1.79,1.67-1.2,2.51-2.75,2.51-4.67,0-2.3-1.2-4-3.59-5.1-2.39-1.1-6.27-2.32-11.63-3.66-5.75-1.34-10.53-2.75-14.36-4.24-3.83-1.48-7.13-3.83-9.91-7.04-2.78-3.21-4.17-7.54-4.17-13,0-4.6,1.27-8.78,3.81-12.57,2.54-3.78,6.27-6.77,11.2-8.98,4.93-2.2,10.79-3.3,17.59-3.3,10.05,0,17.97,2.49,23.77,7.47,5.79,4.98,9.12,11.59,9.98,19.82h-22.69c-.38-2.78-1.6-4.98-3.66-6.61-2.06-1.63-4.76-2.44-8.11-2.44-2.87,0-5.08.55-6.61,1.65-1.53,1.1-2.3,2.61-2.3,4.52,0,2.3,1.22,4.02,3.66,5.17,2.44,1.15,6.25,2.3,11.42,3.45,5.94,1.53,10.77,3.04,14.51,4.52,3.73,1.49,7.01,3.88,9.84,7.18,2.82,3.3,4.28,7.73,4.38,13.28,0,4.69-1.32,8.88-3.95,12.57-2.63,3.69-6.42,6.58-11.35,8.69-4.93,2.11-10.65,3.16-17.16,3.16-6.99,0-13.21-1.2-18.67-3.59Z"/>
        <path class="cls-1" d="M647.25,117.05h-55.58c.38,4.98,1.99,8.79,4.81,11.42,2.82,2.63,6.29,3.95,10.41,3.95,6.13,0,10.39-2.59,12.78-7.76h26.14c-1.34,5.27-3.76,10.01-7.25,14.22-3.5,4.21-7.88,7.52-13.14,9.91-5.27,2.39-11.16,3.59-17.67,3.59-7.85,0-14.84-1.67-20.97-5.03-6.13-3.35-10.92-8.14-14.36-14.36-3.45-6.22-5.17-13.5-5.17-21.83s1.7-15.61,5.1-21.83c3.4-6.22,8.16-11.01,14.29-14.36,6.13-3.35,13.16-5.03,21.11-5.03s14.65,1.63,20.68,4.88c6.03,3.26,10.75,7.9,14.15,13.93,3.4,6.03,5.1,13.07,5.1,21.11,0,2.3-.14,4.69-.43,7.18ZM622.55,103.41c0-4.21-1.44-7.56-4.31-10.05-2.87-2.49-6.46-3.73-10.77-3.73s-7.59,1.2-10.41,3.59c-2.83,2.39-4.57,5.79-5.24,10.2h30.73Z"/>
        <path class="cls-1" d="M695.94,74.04c4.31-2.54,9.09-3.81,14.36-3.81v26h-6.75c-6.13,0-10.72,1.32-13.79,3.95-3.07,2.63-4.6,7.25-4.6,13.86v37.2h-24.56v-80.14h24.56v13.36c2.87-4.4,6.46-7.87,10.77-10.41Z"/>
        <path class="cls-1" d="M723.87,58.96c-2.73-2.54-4.09-5.67-4.09-9.41s1.36-7.01,4.09-9.55c2.73-2.54,6.25-3.81,10.56-3.81s7.68,1.27,10.41,3.81c2.73,2.54,4.09,5.72,4.09,9.55s-1.36,6.87-4.09,9.41c-2.73,2.54-6.2,3.81-10.41,3.81s-7.83-1.27-10.56-3.81ZM746.64,71.09v80.14h-24.56v-80.14h24.56Z"/>
        <path class="cls-1" d="M778.38,148.79c-5.46-2.39-9.77-5.67-12.93-9.84-3.16-4.17-4.93-8.83-5.31-14h24.27c.29,2.78,1.58,5.03,3.88,6.75s5.12,2.58,8.47,2.58c3.06,0,5.43-.6,7.11-1.79,1.67-1.2,2.51-2.75,2.51-4.67,0-2.3-1.2-4-3.59-5.1-2.39-1.1-6.27-2.32-11.63-3.66-5.75-1.34-10.53-2.75-14.36-4.24-3.83-1.48-7.13-3.83-9.91-7.04-2.78-3.21-4.17-7.54-4.17-13,0-4.6,1.27-8.78,3.81-12.57,2.54-3.78,6.27-6.77,11.2-8.98,4.93-2.2,10.79-3.3,17.59-3.3,10.05,0,17.97,2.49,23.77,7.47,5.79,4.98,9.12,11.59,9.98,19.82h-22.69c-.38-2.78-1.6-4.98-3.66-6.61-2.06-1.63-4.76-2.44-8.11-2.44-2.87,0-5.08.55-6.61,1.65-1.53,1.1-2.3,2.61-2.3,4.52,0,2.3,1.22,4.02,3.66,5.17,2.44,1.15,6.25,2.3,11.42,3.45,5.94,1.53,10.77,3.04,14.51,4.52,3.73,1.49,7.01,3.88,9.84,7.18,2.82,3.3,4.28,7.73,4.38,13.28,0,4.69-1.32,8.88-3.95,12.57-2.63,3.69-6.42,6.58-11.35,8.69-4.93,2.11-10.65,3.16-17.16,3.16-6.99,0-13.21-1.2-18.67-3.59Z"/>
      </g>
      <g>
        <path class="cls-2" d="M191.25,76.27l2.06,14.87c-8.39-1.55-17.25-2.02-26.58-1.43-.62.05-.94.39-.94,1.01v22.02c0,.52.25.78.78.79l7.91.25-1.27,13.72c-9.77.57-20.81,1.08-21.14-10.48-.25-8.83-.27-17.63-.03-26.46.02-.49-.37-.88-.86-.88h-12.96c-1.43,0-2.14-.71-2.14-2.14v-9.08c0-1.65.83-2.48,2.48-2.48h12.71c.4,0,.73-.32.73-.73V15.23c0-.62-.32-.98-.94-1.05-6.56-.74-11.12-.54-13.67.61-4.22,1.91-6.33,5.45-6.33,10.65.03,46.67.1,92.52.22,137.52,0,1.57-.05,5.89-.17,12.99-.08,5.48-.88,9.67-2.36,12.59-2.82,5.5-7.02,9.28-12.64,11.34-3.31,1.23-8.54,1.77-15.69,1.65-3.53-.07-8.86-.03-15.96.1-.42.02-.78-.34-.78-.76v-110.51c0-.39-.32-.71-.71-.71h-13.97c-.76,0-1.13-.37-1.13-1.11v-11.24c0-.84.42-1.27,1.27-1.27h13.55c.59,0,1.08-.49,1.08-1.08v-25.92c0-.66-.34-1.01-1-1.06-4.52-.32-8.07-.34-10.63-.05-3.86.42-6.6,2.09-8.18,4.98-.93,1.72-1.42,4.59-1.43,8.59-.08,16.86-.1,35.62-.02,56.31.02,3.39-1.28,5.92-3.9,7.61-1.62,1.05-4.13,1.64-7.54,1.79-5.52.24-11,.2-16.45-.12-.19-4.47.39-8.86,1.69-13.16h11.36c.93,0,1.67-.74,1.67-1.65v-21.11c0-.62-.39-1.18-.96-1.4-.46-.17-.96-.22-1.54-.15l-.86-13.53c1.1.29,1.94.24,2.53-.17.46-.32.67-1,.69-1.99.07-6.26.08-10.61.07-13.08-.03-5.55.66-9.79,2.06-12.72,5.64-11.76,15.37-14.33,28.28-14.11.47.02,6.07.07,16.81.17.44.02.66.24.66.67v151.92c0,.69.56,1.25,1.25,1.25,3.37.03,10.78.56,14.21-1.42,3.61-2.08,5.4-5.08,5.37-8.99-.19-29.56-.15-58.64.07-87.21,0-.4-.32-.74-.73-.74h-13.52c-1.16,0-1.74-.57-1.74-1.72v-9.69c0-1.47.74-2.21,2.23-2.21h12.62c.52,0,.96-.44.96-.96-.02-20.64-.03-35.03-.05-43.16-.02-8.25.54-13.77,1.67-16.57,2.26-5.62,6.29-9.92,12.12-12.91C134.89.7,140.39-.11,148,.01c4.07.07,9.82.08,17.23.03.34-.02.61.25.61.59v74.2c0,.54.44.98.98,1l24.43.44Z"/>
        <path class="cls-2" d="M45.95,76.08l.86,13.53-31.64-.03c-.73,0-1.35.57-1.4,1.3-.4,4.99-.49,13.01,2.46,17.28,4.64,6.67,12.77,5.75,20.05,5.77-1.3,4.3-1.87,8.69-1.69,13.16-13.48,1.4-24.97-2.13-31.23-14.36C1.08,108.28-.05,102.35,0,94.96c.08-11.66.12-17.77.13-18.34,0-.35.17-.52.52-.52l45.29-.02Z"/>
        <path class="cls-2" d="M173.21,127.49l1.27-13.72,23.79.03c.56,0,.89-.29,1-.84.49-2.89.54-6.46.15-10.73-.39-4.44-2.43-8.13-6.11-11.1l-2.06-14.87c8.93,2.28,15.27,6.95,19.02,13.99,1.97,3.71,3.05,9.26,3.27,16.67.19,6.56.2,13.13.02,19.66-.02.46-.39.83-.84.83l-39.5.08Z"/>
      </g>
    </g>
  </g>
</svg>